<svg xmlns="http://www.w3.org/2000/svg" width="56" height="56" fill="none"><path fill="#595959" d="M28-.004c-15.466 0-28 12.534-28 28s12.534 28 28 28 28-12.54 28-28-12.54-28-28-28Zm-.011 3.453c13.577 0 24.58 11.004 24.58 24.58 0 13.577-11.003 24.581-24.58 24.581-13.577 0-24.58-11.01-24.58-24.58 0-13.571 11.003-24.58 24.58-24.58Z"/><path fill="#595959" d="M14.043 18.43v19.064h7.758c3.526 0 6.234-2.203 6.234-5.69 0-3.071-2.4-4.248-2.4-4.248s1.845-1.178 1.845-3.79c0-3.038-2.4-5.336-5.937-5.336h-7.5Zm4.294 3.722h2.293c1.63 0 2.337.835 2.337 1.872 0 1.121-.807 1.833-2.23 1.833h-2.4v-3.705Zm0 7.522h2.293c1.63 0 2.337.836 2.337 1.873 0 1.12-.807 1.833-2.23 1.833h-2.4v-3.706ZM33.788 37.435v-14.63H29.5v-4.407h13.341v4.406h-4.473v14.631h-4.58Z"/></svg>