<svg xmlns="http://www.w3.org/2000/svg" width="40" height="48" fill="none"><g fill="#595959" clip-path="url(#a)"><path d="M32.222 47.722v-3.334H29.95c-3.92 0-5.718-2.35-5.718-5.809V3.635h.674c7.34 0 12.001 4.914 12.001 12.138v.648H39.7V.3H.293v16.12h2.792v-.648c0-7.224 4.661-12.138 12.002-12.138h.674v34.944c0 3.459-1.8 5.81-5.719 5.81H7.77v3.333h24.452Z"/><path d="M39.699 31.602h-9.37v-9.484h9.37v9.484ZM9.662 31.602H.292v-9.484h9.37v9.484Z"/></g><defs><clipPath id="a"><path fill="#fff" d="M0 0h40v48H0z"/></clipPath></defs></svg>