<svg xmlns="http://www.w3.org/2000/svg" width="56" height="56" fill="none"><g clip-path="url(#a)"><path fill="#595959" d="M17.693 2.113c7.032-2.788 15.223-2.595 22.067.643-1.95-.295-3.934-.072-5.865.252-5.243.985-10.225 3.44-14.12 7.085-3.734 3.651-6.351 8.496-7.09 13.68-.49 3.672-.036 7.524 1.62 10.867 1.708 3.508 4.713 6.384 8.335 7.869 3.49 1.469 7.539 1.453 11.074.141 5.305-1.936 9.116-7.165 9.552-12.751.274-3.661-.621-7.556-3.094-10.364-2.36-2.749-5.813-4.263-9.268-5.125-.185-3.39 1.42-6.738 3.966-8.942 1.414-1.268 3.168-2.076 4.983-2.594l.137-.047c5.194 2.478 9.607 6.564 12.42 11.58 2.408 4.27 3.665 9.192 3.54 14.094-.023 6.34-2.405 12.616-6.489 17.463-3.86 4.622-9.261 7.947-15.147 9.279-5.902 1.354-12.251.77-17.775-1.725-5.404-2.4-9.983-6.575-12.895-11.71C1.22 37.543-.061 32.624.045 27.715.057 21.6 2.24 15.531 6.051 10.75c3.045-3.818 7.083-6.854 11.642-8.636Z"/></g><defs><clipPath id="a"><path fill="#fff" d="M0 0h56v56H0z"/></clipPath></defs></svg>