<svg xmlns="http://www.w3.org/2000/svg" width="124" height="34" fill="none"><path fill="#595959" d="M13.548 33.258c-6.74-.081-12.255-.306-12.255-.501 0-.597 47.241-.995 85.003-.717 19.673.146 35.865.357 35.982.47.118.112.099.314-.041.448-.288.277-89.938.524-108.689.3Zm-1.599-7.345c0-.172.365-.694.812-1.159.446-.465 2.283-4.439 4.08-8.831C20.57 6.816 21.54 5.036 23.777 3.21l1.6-1.304-4.051.232c-4.63.266-7.357 1.054-9.054 2.616-1.29 1.188-2.083 3.3-1.728 4.605.313 1.149-.539 1.046-1.862-.225C7.116 7.63 7.51 5.59 9.753 3.564 12.561 1.032 14.473.682 27.081.396 33.177.258 38.23.178 38.307.219c.08.042-.391.413-1.045.825-.89.56-2.213.784-5.259.887-3.68.125-4.18.239-5.225 1.188-1.2 1.09-3.618 6.29-6.717 14.442-1.762 4.634-3.177 7.005-4.612 7.727-1.099.553-3.5.982-3.5.625Zm36.232.049c0-.159.352-.778.783-1.376.43-.598.89-1.363 1.02-1.701.13-.338.637-1.577 1.125-2.754l.887-2.14-1.918 1.407c-3.277 2.403-6.79 2.92-8.524 1.253-1.828-1.756-1.108-5.596 1.754-9.35 3.21-4.214 9.135-5.77 9.135-2.4 0 1.546-2.41 4.175-5.521 6.019-2.595 1.539-3.362 2.87-2.523 4.377.51.915 1.423.9 3.568-.059 2.668-1.192 5.117-3.945 6.365-7.152.602-1.548 1.095-2.871 1.095-2.941 0-.07-.432-.205-.96-.3-.887-.16-.858-.213.38-.716.736-.298 1.673-1.109 2.084-1.801C59.228 2.452 62.285.704 67.222.444c3.3-.174 3.543-.128 4.583.871.604.58 1.098 1.262 1.098 1.515 0 .63-2.365 2.854-3.037 2.854-.423 0-.43-.11-.032-.492.281-.27.511-1.003.511-1.628 0-2.478-3.935-3.13-6.85-1.136-1.21.827-3.806 4.195-3.806 4.935 0 .16 1.918.19 4.263.066 4.523-.24 5.39.13 3.04 1.299-3.44 1.709-6.742 10.84-4.052 11.21 2.037.279 5.7-5.98 5.7-9.74 0-1.088.147-1.164 3.836-1.991 4.648-1.042 5.291-.897 4.992 1.121-.12.811-.363 1.82-.539 2.241-.176.422.58-.158 1.68-1.288 2.229-2.29 3.989-3.177 5.553-2.8 2.063.498 1.87 1.574-1.62 9.056-.973 2.083-1.532 3.91-1.535 5.017-.006 2.007-.457 2.163-1.995.685-1.476-1.418-1.227-3.317 1.08-8.214.97-2.057 1.762-3.946 1.762-4.198 0-1.867-4.296 2.9-7.033 7.805-1.957 3.508-2.244 3.83-3.517 3.948-.761.07-1.385-.01-1.385-.177 0-.168.96-2.67 2.131-5.56 2.521-6.215 2.637-7.015.96-6.63-1.664.383-1.812.506-1.813 1.512 0 1.15-2.193 5.613-3.677 7.482-2.299 2.896-6.094 4.203-8.162 2.812-2.163-1.455-.568-7.561 2.791-10.69l1.69-1.574-2.468.137-2.468.138-1.784 4.777c-2.467 6.604-4.42 10.537-5.598 11.27-1.168.726-3.341 1.301-3.341.885Zm.079-13.585c1.597-1.624 2.253-3.368 1.386-3.688-1.208-.445-3.669 2.49-4.657 5.554l-.317.983 1.222-.843c.671-.463 1.736-1.366 2.366-2.006ZM35.237 22.445c-.883-.667-1.123-1.203-1.123-2.506v-1.657l-1.492 1.094c-3.38 2.476-6.396 2.929-8.169 1.226-.99-.952-1.069-1.256-.81-3.131.683-4.945 4.634-9.456 9.058-10.34 1.047-.21 1.555-.082 2.221.558.727.698.794 1.022.422 2.047-.545 1.503-3.917 4.587-6.285 5.747-1.616.792-1.765 1-1.765 2.471 0 .883.172 1.708.382 1.833 1.017.604 3.352-.438 5.378-2.4 1.763-1.706 2.683-3.214 5.128-8.403 2.806-5.956 3.062-6.344 4.396-6.677.78-.194 1.58-.297 1.78-.229.2.068-1.044 3.194-2.763 6.947-3.704 8.086-4.614 10.592-4.614 12.7 0 1.804-.201 1.887-1.745.72h.001Zm-4.5-9.575c1.979-1.801 2.803-3.397 2.102-4.07-.32-.309-.669-.307-1.188.004-1.664.998-4.84 6.829-3.256 5.977.327-.176 1.381-1.036 2.342-1.911Zm79.909 9.546c-.976-.738-1.137-1.13-1.005-2.457.086-.869.008-1.58-.174-1.58s-.331.184-.331.407c0 .807-3.523 2.87-4.9 2.87-1.488 0-2.773-1.044-2.773-2.254 0-.709-.059-.704-.959.087-2.66 2.337-6.05 2.84-7.802 1.158l-1.05-1.01-1.548 1.01c-1.795 1.17-4.034 1.314-5.064.323-1.025-.984-.625-2.647 1.951-8.124 2.194-4.662 2.203-4.675 3.966-5.028.973-.196 1.832-.31 1.91-.255.079.055-.928 2.392-2.237 5.194-2.464 5.272-2.861 6.851-1.724 6.851 1.01 0 3.18-1.706 3.18-2.5 0-1.223 1.694-4.57 3.217-6.356 1.744-2.045 4.51-3.43 6.849-3.43 2.817 0 3.652 1.694 1.598 3.247-1.372 1.037-2.056 1.091-1.646.132.949-2.221-.474-2.844-2.428-1.062-3.624 3.306-5.405 11.024-2.343 10.153 2.082-.593 4.077-2.35 5.423-4.777 2.916-5.257 5.991-7.397 10.711-7.454 1.562-.02 2.98.1 3.152.264.172.164-.181 1.362-.786 2.662-1.839 3.954-3.376 8.807-3.44 10.86-.033 1.07-.179 1.946-.323 1.946-.144 0-.785-.394-1.424-.877Zm-2.662-4.239c1.405-1.39 5.655-9.122 5.236-9.524-.497-.478-2.651.47-3.848 1.693-1.677 1.713-3.493 4.94-4 7.108-.624 2.667.37 2.942 2.612.723ZM92.618 4.99c-.73-.264-.673-1.96.086-2.566.964-.769 2.152-.35 2.152.759 0 1.033-1.355 2.126-2.238 1.807Z"/></svg>