<svg xmlns="http://www.w3.org/2000/svg" width="56" height="56" fill="none"><g clip-path="url(#a)"><path fill="#595959" d="M0 0h55.934l-.001 55.933H0V0Zm48.429 40.457a9.234 9.234 0 0 0-.001.357c.267-.002.536 0 .803 0 .002.742 0 1.484.001 2.226h.438v-2.226h.805v-.356c-.682 0-1.364.002-2.046 0Zm2.556 0a653.5 653.5 0 0 0 0 2.583h.437c.003-.706-.004-1.41.005-2.115.293.699.557 1.409.836 2.113h.283c.282-.706.55-1.418.84-2.122.005.708 0 1.416.002 2.124h.436c.005-.86 0-1.72.002-2.581a49.048 49.048 0 0 0-.664 0c-.246.646-.498 1.291-.748 1.936-.252-.646-.508-1.29-.76-1.937h-.669ZM6.64 43.21c-1.088.044-2.184.536-2.833 1.431-.557.75-.78 1.703-.775 2.626-.017.869.158 1.764.624 2.508.377.609.954 1.087 1.618 1.355a4.43 4.43 0 0 0 2.54.209c.78-.16 1.52-.57 2.03-1.19.459-.548.725-1.238.834-1.94.117-.816.086-1.663-.156-2.454-.226-.741-.685-1.417-1.323-1.863-.738-.523-1.664-.73-2.559-.682Zm7.45 1.101c.002-.301.002-.603 0-.904-.651 0-1.303-.003-1.954.002.003 2.6 0 5.2.001 7.8.699.002 1.397 0 2.095.001.004-1.726-.004-3.452.005-5.178.085-.253.318-.437.55-.557.535-.254 1.14-.276 1.72-.28V43.26c-.914-.086-1.828.366-2.417 1.05Zm5.128-.839a3.46 3.46 0 0 0-1.774 1.3c.463.27.93.532 1.395.796.398-.492.985-.83 1.62-.88.454-.04.998-.017 1.322.35.23.264.163.632.172.951-1.067.126-2.143.3-3.137.723-.561.243-1.108.591-1.44 1.12-.37.592-.407 1.35-.201 2.007a2.02 2.02 0 0 0 1.088 1.237c.594.276 1.274.26 1.907.16a4.642 4.642 0 0 0 1.771-.702l.18.675h1.833c-.023-1.803-.008-3.607-.01-5.41.036-.531-.065-1.093-.399-1.521-.434-.579-1.154-.853-1.847-.963-.825-.118-1.682-.097-2.48.157Zm10.203-.168c-.733.151-1.374.562-1.972.993-.06-.305-.13-.61-.183-.915-.571.078-1.143.157-1.713.237-.002 2.526 0 5.052 0 7.578H27.6v-5.585c.484-.402 1.037-.768 1.676-.848.321-.035.698-.016.933.237.231.27.268.645.28.987v5.21h2.06v-5.543a3.384 3.384 0 0 0-.187-1.093 1.869 1.869 0 0 0-.969-1.08c-.613-.279-1.32-.301-1.973-.178Zm5.353 1.136c-.628.848-.848 1.932-.828 2.97.01.948.22 1.94.822 2.695.477.614 1.221.993 1.99 1.073.56.054 1.16.03 1.662-.255.349-.194.594-.52.8-.853.016.328.005.657.008.985-.013.435-.076.908-.378 1.245-.274.305-.703.412-1.1.414-.417.005-.868-.01-1.23-.243-.18-.116-.272-.319-.325-.518l-2.032.327c.123.631.564 1.166 1.122 1.47.872.483 1.907.536 2.88.443.842-.084 1.732-.323 2.333-.956.538-.568.707-1.376.72-2.135v-7.719c-.582.004-1.163-.008-1.744.007-.045.287-.102.573-.152.86-.18-.372-.53-.63-.907-.783-.495-.202-1.04-.25-1.57-.219-.825.062-1.589.528-2.07 1.192Zm8.569-.06c-.566.673-.818 1.553-.88 2.416-.061.942.027 1.924.458 2.777.334.666.908 1.211 1.602 1.486.892.359 1.893.355 2.822.159.91-.199 1.766-.744 2.229-1.566-.505-.277-1.01-.556-1.513-.837-.225.323-.5.625-.856.804-.401.204-.87.23-1.307.166a1.508 1.508 0 0 1-1.057-.659c-.286-.448-.365-.995-.368-1.517h5.176a5.523 5.523 0 0 0-.206-2.046c-.218-.716-.66-1.38-1.298-1.784-.783-.506-1.76-.615-2.669-.509-.813.098-1.607.472-2.133 1.11Z"/><path fill="#fff" d="M48.428 40.457c.682.002 1.364 0 2.047.001v.355h-.805v2.226l-.439.001v-2.227h-.804a9.033 9.033 0 0 1 0-.356ZM50.986 40.457h.669c.251.646.508 1.291.76 1.938.25-.646.5-1.29.747-1.937.221-.001.443-.002.665 0-.002.86.002 1.721-.003 2.582-.145-.002-.29-.002-.435-.001-.002-.708.002-1.416-.003-2.124-.29.704-.558 1.416-.84 2.123h-.282c-.28-.705-.544-1.415-.837-2.114-.009.705-.002 1.41-.004 2.115h-.437c-.002-.86-.002-1.721 0-2.582Z"/><path fill="#595959" fill-rule="evenodd" d="M5.924 45.203c.189-.122.405-.202.629-.231.5-.074 1.059.008 1.45.35.368.317.547.794.627 1.26a4.515 4.515 0 0 1-.02 1.585c-.094.458-.299.92-.68 1.208-.026.02-.053.038-.08.056-.414.265-.944.308-1.419.21a1.51 1.51 0 0 1-.992-.717c-.305-.529-.372-1.156-.36-1.756.02-.539.115-1.1.423-1.554.111-.165.256-.304.422-.411Z" clip-rule="evenodd"/><path fill="#fff" d="M14.088 44.31c.588-.684 1.502-1.135 2.416-1.05v1.934c-.58.005-1.185.027-1.72.28-.232.12-.465.304-.55.558-.008 1.725 0 3.452-.004 5.178-.699-.002-1.397 0-2.096-.002 0-2.6.002-5.2-.001-7.8.651-.005 1.303-.002 1.955-.002v.905Z"/><path fill="#595959" fill-rule="evenodd" d="M19.232 48.31c.18-.311.503-.504.824-.643.584-.241 1.213-.348 1.837-.427l.001.868.001.956c-.522.467-1.187.834-1.904.82a.863.863 0 0 1-.643-.27 1.137 1.137 0 0 1-.116-1.305Z" clip-rule="evenodd"/><path fill="#fff" d="M29.42 43.306c.653-.124 1.36-.101 1.973.177.456.206.802.612.969 1.081.128.349.179.722.187 1.093V51.2h-2.06l-.001-5.21c-.011-.341-.048-.716-.28-.986-.234-.254-.611-.273-.933-.237-.638.08-1.192.446-1.675.847V51.2H25.55v-7.578c.571-.08 1.143-.16 1.713-.237.055.306.124.61.184.915.598-.431 1.24-.842 1.971-.993Z"/><path fill="#595959" fill-rule="evenodd" d="M38.011 49.464c.236-.062.457-.178.63-.354.309-.316.453-.753.526-1.181.066-.406.083-.82.067-1.23-.035-.56-.198-1.143-.6-1.553a1.516 1.516 0 0 0-1.449-.4c-.261.07-.5.221-.674.428-.283.33-.414.759-.474 1.181a6.48 6.48 0 0 0-.005 1.45c.055.474.169.977.512 1.33.255.276.643.393 1.011.382.153.003.307-.014.456-.053ZM46.764 44.757a1.832 1.832 0 0 0-.825-.123c-.37.023-.742.174-.992.456-.29.32-.413.756-.447 1.178a831.335 831.335 0 0 0 3.141.001c-.01-.416-.106-.855-.392-1.172a1.308 1.308 0 0 0-.485-.34Z" clip-rule="evenodd"/></g><defs><clipPath id="a"><path fill="#fff" d="M0 0h56v56H0z"/></clipPath></defs></svg>