<svg xmlns="http://www.w3.org/2000/svg" width="140" height="30" fill="none"><g fill="#595959" clip-path="url(#a)"><path d="M55.57 2.926h6.174v5.286h-6.175V2.926ZM7 29.318h6.45l7-19.47h-6.174l-3.933 12.51h-.079L6.332 9.849H0l7 19.47Zm22.653-15.782c2.163 0 3.657 1.56 3.893 3.841h-8.22c.473-2.32 1.77-3.841 4.327-3.841Zm.315 12.056c-2.714 0-4.366-1.712-4.68-4.335h14.511c.04-4.184-1.101-7.53-3.5-9.622-1.691-1.521-3.933-2.358-6.764-2.358-6.056 0-10.265 4.45-10.265 10.268 0 5.856 4.012 10.343 10.658 10.343 2.517 0 4.523-.646 6.174-1.75 1.77-1.177 3.029-2.89 3.382-4.6h-5.899c-.59 1.293-1.809 2.053-3.617 2.053Zm11.286 3.726h6.135v-8.936c0-4.07 2.517-5.857 6.371-5.363h.118V9.887c-.314-.114-.668-.152-1.258-.152-2.399 0-4.011 1.064-5.388 3.346h-.118V9.848h-5.86v19.47Zm14.316 0h6.174V9.848h-6.175v19.47Zm7.866 0H80.66V24.64h-9.753v-.115l9.32-10.115V9.848H63.437v4.677h9.439v.114l-9.44 10.192v4.487Zm28.12-3.765c-2.912 0-4.445-2.357-4.445-5.932 0-3.613 1.533-5.933 4.444-5.933 2.91 0 4.523 2.32 4.523 5.933 0 3.575-1.613 5.932-4.523 5.932Zm.038-16.238c-6.41 0-10.697 4.45-10.697 10.306 0 5.818 4.287 10.306 10.697 10.306 6.41 0 10.697-4.488 10.697-10.306 0-5.857-4.286-10.306-10.697-10.306Zm12.035 20.003h6.135V18.48c0-2.472 1.494-4.221 3.696-4.221 2.124 0 3.225 1.445 3.225 3.499v11.56h6.135V16.617c0-4.298-2.674-7.34-7-7.34-2.753 0-4.68 1.141-6.135 3.232h-.118V9.848h-5.938v19.47ZM122.718 9.847h3.142l3.142 6.516 7.855-16.29h3.142l-9.426 19.548h-3.142l-4.713-9.774Z"/></g><defs><clipPath id="a"><path fill="#fff" d="M0 0h140v30H0z"/></clipPath></defs></svg>