<svg xmlns="http://www.w3.org/2000/svg" width="183" height="50" fill="none"><path fill="#2E312F" d="M65.023 13.727h6.068L77.5 29.364h.273l6.409-15.637h6.068V37h-4.773V21.852h-.193l-6.023 15.034h-3.25l-6.022-15.09h-.194V37h-4.772V13.727ZM99.19 37.33c-1.113 0-2.106-.194-2.977-.58a4.793 4.793 0 0 1-2.068-1.739c-.5-.772-.75-1.735-.75-2.886 0-.97.178-1.784.534-2.443.356-.66.84-1.19 1.454-1.591a7.057 7.057 0 0 1 2.091-.91 15.941 15.941 0 0 1 2.478-.431 62.478 62.478 0 0 0 2.454-.296c.621-.098 1.072-.242 1.353-.431.28-.19.42-.47.42-.841v-.068c0-.72-.227-1.277-.682-1.67-.447-.395-1.083-.592-1.909-.592-.871 0-1.564.194-2.08.58-.515.379-.855.856-1.022 1.432l-4.478-.364c.228-1.06.675-1.977 1.341-2.75.667-.78 1.527-1.379 2.58-1.796 1.06-.424 2.288-.636 3.682-.636.969 0 1.898.114 2.784.341.894.227 1.685.58 2.375 1.057a5.141 5.141 0 0 1 1.648 1.84c.401.743.602 1.633.602 2.671V37h-4.591v-2.42h-.136a4.948 4.948 0 0 1-1.125 1.443c-.47.409-1.034.73-1.694.966-.659.227-1.42.34-2.284.34Zm1.387-3.341c.712 0 1.341-.14 1.886-.42a3.334 3.334 0 0 0 1.284-1.16 2.986 2.986 0 0 0 .466-1.648V28.91c-.151.099-.36.19-.625.273a11.41 11.41 0 0 1-.875.216c-.326.06-.651.117-.977.17l-.887.125a5.986 5.986 0 0 0-1.488.398c-.424.182-.754.428-.989.738-.235.304-.352.682-.352 1.137 0 .659.239 1.163.716 1.511.485.341 1.098.512 1.841.512Zm20.085 3.352c-1.788 0-3.326-.379-4.614-1.136a7.68 7.68 0 0 1-2.954-3.182c-.682-1.356-1.023-2.917-1.023-4.682 0-1.788.345-3.356 1.034-4.705.697-1.356 1.686-2.412 2.966-3.17 1.28-.765 2.803-1.148 4.568-1.148 1.523 0 2.856.277 4 .83 1.144.553 2.049 1.33 2.716 2.33.667 1 1.034 2.173 1.102 3.522h-4.568c-.129-.871-.469-1.572-1.023-2.102-.545-.538-1.261-.807-2.147-.807-.75 0-1.406.204-1.966.613-.553.402-.985.99-1.296 1.762-.31.773-.466 1.708-.466 2.807 0 1.113.152 2.06.455 2.84.311.78.746 1.376 1.307 1.785.56.409 1.216.613 1.966.613a3.19 3.19 0 0 0 1.488-.34 2.879 2.879 0 0 0 1.103-.99c.295-.439.488-.965.579-1.579h4.568c-.075 1.334-.439 2.508-1.091 3.523-.643 1.008-1.534 1.795-2.67 2.364-1.136.568-2.481.852-4.034.852ZM131.648 37V13.727h9.318c1.712 0 3.14.254 4.284.762 1.144.507 2.004 1.212 2.58 2.113.575.894.863 1.924.863 3.091 0 .91-.182 1.708-.545 2.398a4.715 4.715 0 0 1-1.5 1.682 6.155 6.155 0 0 1-2.159.92v.227a5.207 5.207 0 0 1 2.488.75c.781.463 1.413 1.11 1.898 1.944.485.825.727 1.81.727 2.954 0 1.235-.307 2.337-.92 3.307-.606.962-1.504 1.724-2.693 2.284-1.19.56-2.656.841-4.398.841h-9.943Zm4.92-4.023h4.012c1.371 0 2.371-.261 3-.784.628-.53.943-1.235.943-2.113 0-.644-.156-1.213-.466-1.705-.311-.492-.754-.879-1.33-1.16-.568-.28-1.246-.42-2.034-.42h-4.125v6.182Zm0-9.511h3.648c.674 0 1.273-.117 1.795-.352a2.983 2.983 0 0 0 1.25-1.023c.311-.44.466-.966.466-1.58 0-.84-.299-1.519-.897-2.034-.591-.515-1.432-.773-2.523-.773h-3.739v5.762ZM152.713 37V19.546h4.693v3.045h.182c.318-1.083.852-1.902 1.602-2.455.75-.56 1.614-.84 2.591-.84.243 0 .504.015.784.045.281.03.527.072.739.125v4.295a6.333 6.333 0 0 0-.943-.181 8.484 8.484 0 0 0-1.102-.08c-.713 0-1.349.155-1.91.466a3.432 3.432 0 0 0-1.318 1.273c-.318.545-.477 1.174-.477 1.886V37h-4.841Zm20.168.34c-1.765 0-3.292-.374-4.58-1.124a7.701 7.701 0 0 1-2.966-3.16c-.697-1.355-1.045-2.927-1.045-4.715 0-1.803.348-3.379 1.045-4.727.697-1.356 1.686-2.41 2.966-3.16 1.288-.757 2.815-1.136 4.58-1.136 1.765 0 3.288.379 4.568 1.136 1.288.75 2.28 1.804 2.977 3.16.697 1.348 1.046 2.924 1.046 4.727 0 1.788-.349 3.36-1.046 4.716a7.675 7.675 0 0 1-2.977 3.159c-1.28.75-2.803 1.125-4.568 1.125Zm.022-3.75c.803 0 1.474-.226 2.012-.68.538-.463.943-1.092 1.216-1.887.28-.796.42-1.701.42-2.716 0-1.015-.14-1.92-.42-2.716-.273-.796-.678-1.424-1.216-1.887-.538-.462-1.209-.693-2.012-.693-.81 0-1.492.231-2.045.694-.545.462-.958 1.09-1.239 1.886-.272.795-.409 1.7-.409 2.716 0 1.015.137 1.92.409 2.716.281.795.694 1.424 1.239 1.886.553.455 1.235.682 2.045.682ZM35.52 42.25c-2.04 1.98-4.27 1.667-6.416.73-2.27-.96-4.354-1-6.75 0-3 1.29-4.583.916-6.375-.73-10.166-10.48-8.666-26.438 2.875-27.02 2.813.145 4.771 1.54 6.417 1.666 2.458-.5 4.812-1.938 7.437-1.75 3.146.25 5.521 1.5 7.084 3.75-6.5 3.896-4.959 12.458 1 14.854-1.188 3.125-2.73 6.23-5.292 8.52l.02-.02ZM25.063 15.104c-.312-4.646 3.459-8.479 7.792-8.854.604 5.375-4.875 9.375-7.791 8.854Z"/></svg>
